#N canvas 827 239 527 327 12;
#X obj 186 227 noise~;
#X obj 143 347 output~;
#X obj 162 59 hsl 128 17 0 1 0 0 empty empty empty -2 -8 0 10 #191919 #e1e1e1 #e1e1e1 0 1;
#X obj 143 279 *~;
#X obj 84 159 vsl 16 86 0 1 0 0 empty empty empty 0 -9 0 10 #191919 #e1e1e1 #e1e1e1 0 1;
#X obj 228 279 *~;
#X obj 282 159 vsl 16 86 0 1 0 0 empty empty empty 0 -9 0 10 #191919 #e1e1e1 #e1e1e1 0 1;
#X obj 79 130 abs;
#X obj 79 106 - 1;
#X text 302 58 right;
#X text 118 58 left;
#X obj 506 227 noise~;
#X obj 463 347 output~;
#X obj 484 29 hsl 128 17 0 1 0 0 empty empty empty -2 -8 0 10 #191919 #e1e1e1 #e1e1e1 0 1;
#X obj 463 279 *~;
#X obj 404 159 vsl 16 86 0 1 0 0 empty empty empty 0 -9 0 10 #191919 #e1e1e1 #e1e1e1 0 1;
#X obj 548 279 *~;
#X obj 602 159 vsl 16 86 0 1 0 0 empty empty empty 0 -9 0 10 #191919 #e1e1e1 #e1e1e1 0 1;
#X obj 401 100 abs;
#X obj 401 76 - 1;
#X text 624 28 right;
#X text 440 28 left;
#X obj 401 123 sqrt;
#X obj 593 129 sqrt;
#X obj 1259 199 oscope~ 299 139 256 3 128 -1.2 1.2 0 0 0 0 195 0 94 228 228 228 183 183 183 0 empty;
#X obj 1259 339 spectrograph~;
#X obj 1320 597 hsl 128 17 20 20000 1 0 empty empty empty -2 -8 0 10 #e4e4e4 #4d4d4d #373737 0 1;
#X obj 1259 631 lowpass~ 5000 0.707;
#X obj 1649 342 spectrograph~;
#X obj 2199 51 hsl 128 17 20 20000 1 0 empty empty empty -2 -8 0 10 #e4e4e4 #4d4d4d #373737 0 1;
#X obj 2138 85 lowpass~ 5000 0.707;
#X obj 991 114 square~ 40;
#X obj 1449 136 output~;
#X obj 1839 130 output~;
#X obj 1649 198 oscope~ 299 140 256 3 10 -1 1 0 0 0 0 77 77 77 228 228 228 183 183 183 0 empty;
#X obj 1152 36 hsl 100 17 10 20000 0 0 empty empty empty 5 8 1 10 #dcdcdc #000000 #000000 0 0;
#X floatatom 1149 58 7 0 0 0 freq - - 0;
#X obj 1149 88 osc~ 2;
#X obj 1621 114 noise~;
#X obj 817 685 oscope~ 332 139 256 3 128 -1.2 1.2 0 0 0 0 195 0 94 228 228 228 183 183 183 0 empty;
#X obj 817 604 compress~ -30 5 5 5 12 256;
#X obj 1259 685 spectrograph~;
#X obj 2171 352 oscope~ 299 140 256 3 10 -1 1 0 0 0 0 77 77 77 228 228 228 183 183 183 0 empty;
#X obj 2169 185 spectrograph~;
#X obj 2359 126 output~;
#X obj 1087 409 fft~;
#X connect 0 0 5 0;
#X connect 0 0 3 1;
#X connect 2 0 8 0;
#X connect 2 0 6 0;
#X connect 3 0 1 0;
#X connect 4 0 3 0;
#X connect 5 0 1 1;
#X connect 6 0 5 1;
#X connect 7 0 4 0;
#X connect 8 0 7 0;
#X connect 11 0 16 0;
#X connect 11 0 14 1;
#X connect 13 0 19 0;
#X connect 13 0 23 0;
#X connect 14 0 12 0;
#X connect 15 0 14 0;
#X connect 16 0 12 1;
#X connect 17 0 16 1;
#X connect 18 0 22 0;
#X connect 19 0 18 0;
#X connect 22 0 15 0;
#X connect 23 0 17 0;
#X connect 26 0 27 1;
#X connect 27 0 41 0;
#X connect 29 0 30 1;
#X connect 30 0 44 0;
#X connect 30 0 42 0 32.................2C...nG...v8....5A...bO....;
#X connect 30 0 43 0 32.................QA...fG...PT....3A....E....;
#X connect 35 0 36 0;
#X connect 36 0 37 0;
#X connect 36 0 31 0;
#X connect 37 0 32 0;
#X connect 37 0 24 0 32.................EA...fG...PQ....3A...PD....;
#X connect 38 0 33 0;
#X connect 38 0 34 0 32.................z....3A....M....d....rC....;
#X connect 40 0 39 0;
